<svg id="eKNUipbvOEj1" xmlns="http://www.w3.org/2000/svg" xmlns:xlink="http://www.w3.org/1999/xlink" viewBox="0 0 29 31" shape-rendering="geometricPrecision" text-rendering="geometricPrecision">
<style><![CDATA[
#eKNUipbvOEj2_to {animation: eKNUipbvOEj2_to__to 3800ms linear infinite normal forwards}@keyframes eKNUipbvOEj2_to__to { 0% {transform: translate(24px,5px)} 13.157895% {transform: translate(24px,5px);animation-timing-function: cubic-bezier(0.965,0.005,0.29,1)} 26.315789% {transform: translate(15.840674px,16px);animation-timing-function: cubic-bezier(0.965,0.005,0.29,1)} 39.473684% {transform: translate(23.292858px,5px)} 100% {transform: translate(23.292858px,5px)}} #eKNUipbvOEj2 {animation: eKNUipbvOEj2_c_o 3800ms linear infinite normal forwards}@keyframes eKNUipbvOEj2_c_o { 0% {opacity: 1} 89.473684% {opacity: 1;animation-timing-function: cubic-bezier(0.755,0.05,0.22,0.815)} 97.368421% {opacity: 0} 100% {opacity: 0}} #eKNUipbvOEj3_to {animation: eKNUipbvOEj3_to__to 3800ms linear infinite normal forwards}@keyframes eKNUipbvOEj3_to__to { 0% {transform: translate(24px,26px)} 60.526316% {transform: translate(24px,26px);animation-timing-function: cubic-bezier(0.975,-0.005,0,1.02)} 73.684211% {transform: translate(14.5px,15.5px)} 89.473684% {transform: translate(23.292858px,26px)} 100% {transform: translate(23.292858px,26px)}} #eKNUipbvOEj3 {animation: eKNUipbvOEj3_c_o 3800ms linear infinite normal forwards}@keyframes eKNUipbvOEj3_c_o { 0% {opacity: 1} 89.473684% {opacity: 1;animation-timing-function: cubic-bezier(0.755,0.05,0.22,0.815)} 97.368421% {opacity: 0} 100% {opacity: 0}} #eKNUipbvOEj4_to {animation: eKNUipbvOEj4_to__to 3800ms linear infinite normal forwards}@keyframes eKNUipbvOEj4_to__to { 0% {transform: translate(5.5px,26px)} 36.842105% {transform: translate(5.5px,26px);animation-timing-function: cubic-bezier(0.99,0.02,0,1.045)} 52.631579% {transform: translate(14px,16.42639px);animation-timing-function: cubic-bezier(0.99,0.02,0,1.045)} 65.789474% {transform: translate(5.5px,26px)} 100% {transform: translate(5.5px,26px)}} #eKNUipbvOEj4 {animation: eKNUipbvOEj4_c_o 3800ms linear infinite normal forwards}@keyframes eKNUipbvOEj4_c_o { 0% {opacity: 1} 89.473684% {opacity: 1;animation-timing-function: cubic-bezier(0.755,0.05,0.22,0.815)} 97.368421% {opacity: 0} 100% {opacity: 0}} #eKNUipbvOEj5_to {animation: eKNUipbvOEj5_to__to 3800ms linear infinite normal forwards}@keyframes eKNUipbvOEj5_to__to { 0% {transform: translate(14.5px,15.5px);animation-timing-function: cubic-bezier(0.9,0.02,0.44,1)} 13.157895% {transform: translate(5.5px,5px)} 100% {transform: translate(5.5px,5px)}} #eKNUipbvOEj5 {animation: eKNUipbvOEj5_c_o 3800ms linear infinite normal forwards}@keyframes eKNUipbvOEj5_c_o { 0% {opacity: 1} 89.473684% {opacity: 1;animation-timing-function: cubic-bezier(0.755,0.05,0.22,0.815)} 97.368421% {opacity: 0} 100% {opacity: 0}}
]]></style>
<g id="eKNUipbvOEj2_to" transform="translate(24,5)"><path id="eKNUipbvOEj2" d="M29,5c0,2.76142-2.2386,5-5,5s-5-2.23858-5-5s2.2386-5,5-5s5,2.23858,5,5Z" transform="translate(-24,-5)" fill="#0078f0"/></g><g id="eKNUipbvOEj3_to" transform="translate(24,26)"><path id="eKNUipbvOEj3" d="M29,26c0,2.7614-2.2386,5-5,5s-5-2.2386-5-5s2.2386-5,5-5s5,2.2386,5,5Z" transform="translate(-24,-26)" fill="#0078f0"/></g><g id="eKNUipbvOEj4_to" transform="translate(5.5,26)"><path id="eKNUipbvOEj4" d="M10.5,26c0,2.7614-2.23858,5-5,5s-5-2.2386-5-5s2.23858-5,5-5s5,2.2386,5,5Z" transform="translate(-5.5,-26)" fill="#0078f0"/></g><g id="eKNUipbvOEj5_to" transform="translate(14.5,15.5)"><path id="eKNUipbvOEj5" d="M10.5,5c0,2.76142-2.23858,5-5,5s-5-2.23858-5-5s2.23858-5,5-5s5,2.23858,5,5Z" transform="translate(-5.5,-5)" fill="#0078f0"/></g></svg>
