<svg id="eAN2rcwsmyu1" xmlns="http://www.w3.org/2000/svg" xmlns:xlink="http://www.w3.org/1999/xlink" viewBox="0 0 336 335" shape-rendering="geometricPrecision" text-rendering="geometricPrecision">
<style><![CDATA[
#eAN2rcwsmyu2_to {animation: eAN2rcwsmyu2_to__to 2000ms linear infinite normal forwards}@keyframes eAN2rcwsmyu2_to__to { 0% {transform: translate(129.587823px,108.522197px);animation-timing-function: cubic-bezier(0.645,0.045,0.355,1)} 45% {transform: translate(129px,174px)} 100% {transform: translate(129px,174px)}} #eAN2rcwsmyu3_to {animation: eAN2rcwsmyu3_to__to 2000ms linear infinite normal forwards}@keyframes eAN2rcwsmyu3_to__to { 0% {transform: translate(71.736532px,146.5px);animation-timing-function: cubic-bezier(0.785,0.135,0.15,0.86)} 30% {transform: translate(73.5px,193px)} 70% {transform: translate(72.912178px,239px);animation-timing-function: cubic-bezier(0.93,0.02,0.16,0.99)} 95% {transform: translate(74.087823px,192.5px)} 100% {transform: translate(74.087823px,192.5px)}} #eAN2rcwsmyu4_to {animation: eAN2rcwsmyu4_to__to 2000ms linear infinite normal forwards}@keyframes eAN2rcwsmyu4_to__to { 0% {transform: translate(184.912177px,64.522197px)} 10% {transform: translate(184.912177px,64.522197px);animation-timing-function: cubic-bezier(0.785,0.135,0.15,0.86)} 35% {transform: translate(184.324355px,139.175645px)} 85.5% {transform: translate(185.324355px,139.175645px)} 100% {transform: translate(185.324355px,139.175645px)}}
]]></style>
<g id="eAN2rcwsmyu2_to" transform="translate(129.587823,108.522197)"><line x1="129" y1="130" x2="129" y2="218" transform="translate(-129,-174)" fill="none" stroke="#0478ef" stroke-width="24"/></g><g id="eAN2rcwsmyu3_to" transform="translate(71.736532,146.5)"><line x1="73.5" y1="172" x2="73.5" y2="214" transform="translate(-73.5,-193)" fill="none" stroke="#0478ef" stroke-width="23"/></g><g id="eAN2rcwsmyu4_to" transform="translate(184.912177,64.522197)"><line x1="185.5" y1="183" x2="185.5" y2="93" transform="translate(-185.5,-138)" fill="none" stroke="#0478ef" stroke-width="23"/></g><line x1="292.889" y1="292.111" x2="322.889" y2="322.111" fill="none" stroke="#0478ef" stroke-width="11"/><path d="M220.28,18.28C205.725,32.835,202,37.103,202,39.223C202,43.208,205.325,45,212.723,45h6.277v5.5v5.5h-96.818C14.775,56,19.17,55.739,11.166,62.59c-2.33502,1.999-5.44402,5.946-6.90802,8.772-2.454,4.736-2.695,6.293-3.069,19.888L0.781982,106h5.608998L12,106l.006-11.25c.006-12.89.982-17.394,4.736-21.855C21.936,66.722,16.952,67,122.468,67L219,67v53v53h5.5h5.5v-67.845c0-64.457-.091-67.928-1.829-69.5-1.006-.91-2.806-1.655-4-1.655s-2.171-.346-2.171-.77c0-.423,4.275-5.027,9.5-10.23l9.5-9.46L250.5,23c5.225,5.203,9.5,9.807,9.5,10.23c0,.424-1.055.77-2.345.77s-3.093.827-4.007,1.837c-1.52,1.679-1.641,7.413-1.405,66.75L252.5,167.5l5.25.302l5.25.303v-50.553L263,67h12.788c11.29,0,13.304.264,17.192,2.25c2.421,1.237,5.329,3.52,6.461,5.073c2.016,2.763,2.065,4.066,2.332,61.75L302.046,195h6.035h6.035l-.308-58.75L313.5,77.5l-2.801-5.704c-2.99-6.089-6.469-9.566-13.083-13.077-3.601-1.912-6.024-2.23-19.366-2.542L263,55.821v-5.411-5.41h6.277C276.675,45,280,43.208,280,39.223C280,35.51,244.692,0,241,0c-1.831,0-7.002,4.562-20.72,18.28ZM274.718,0.616c-.395.394-.718,2.853-.718,5.463c0,4.741.003,4.746,3.922,5.408c8.786,1.484,16.962,9.725,18.615,18.763l.686,3.75h5.524h5.525l-.64-4.669c-1.501-10.947-9.23-21.469-18.984-25.844-5.634-2.526-12.798-4.003-13.93-2.871ZM29,83.5v5.5h5.5h5.5v-5.5-5.5h-5.5-5.5v5.5Zm22.712-4.878c-.392.391-.712,2.886-.712,5.545L51,89h6.052h6.053l-.303-5.25L62.5,78.5l-5.038-.295c-2.772-.162-5.359.025-5.75.417ZM74,83.5v5.5h5.5h5.5v-5.5-5.5h-5.5-5.5v5.5Zm90.655,2.329c-1.503,1.66-1.655,7.552-1.655,64v62.171h-5.5-5.5v-42.277c0-36.646-.207-42.574-1.557-44.5C148.926,123.056,148.4,123,129.5,123s-19.426.056-20.943,2.223c-1.35,1.926-1.557,7.854-1.557,44.5v42.277h-5.5-5.5v-23.345c0-21.346-.157-23.487-1.829-25-1.564-1.416-4.529-1.655-20.5-1.655-17.338,0-18.814.143-20.671,2-1.884,1.884-2,3.333-2,25v23h-11-11v5.5v5.5h72.5h72.5v-64-64h11h11v44.5v44.5h6.036h6.037l-.287-48.347c-.232-39.19-.546-48.661-1.658-50-1.19-1.432-3.94-1.653-20.595-1.653-17.353,0-19.384.178-20.878,1.829ZM1.21798,187.75l.282,70.75l2.71,5.138c1.491,2.826,4.621,6.773,6.95602,8.772c7.573,6.482,8.595,6.59,62.622,6.59c45.71,0,48.388.098,47.753,1.75-.37.962-3.121,9.94-6.113,19.95-7.695,25.745-6.288,23.3-13.403,23.3L96,324v5.5v5.5h61.5h61.5v-5.5-5.5h-6.333-6.333l-3.711-12c-2.042-6.6-4.062-12-4.489-12-.428,0-2.823.697-5.323,1.549l-4.545,1.548l3.038,9.948c1.67,5.471,2.805,10.179,2.521,10.463-.284.285-16.949.399-37.032.254l-36.515-.262l6.611-22l6.611-22l20.25-.271l20.25-.27v-5.48-5.479h-74.032c-60.264,0-74.639-.254-77.297-1.364-6.053-2.529-10.65-10.235-10.665-17.88L12,246.012l78.25-.256l78.25-.256v-5.5-5.5l-78.25-.256L12,233.988v-58.494L12,117h-5.53202-5.531997l.281997,70.75ZM141,173v39h-11.5-11.5v-39-39h11.5h11.5v39ZM85,192.5v19.5h-11-11v-19.5-19.5h11h11v19.5Zm145-11.929c-17.994,4.709-34.937,18.335-42.824,34.441C181.654,226.289,180,233.317,180,245.5c0,18.933,6.122,33.765,19.429,47.071c13.285,13.286,28.257,19.482,47.071,19.482c10.793,0,18.611-1.599,27.371-5.6c2.954-1.349,5.885-2.453,6.514-2.453.628,0,7.212,6.124,14.629,13.61c15.207,15.346,19.4,18.005,26.677,16.914c9.05-1.358,15.341-10.456,13.748-19.887-.614-3.635-2.502-5.964-15.569-19.203-8.178-8.286-14.87-15.537-14.87-16.112s1.295-3.92,2.879-7.434c3.871-8.59,5.121-15.114,5.121-26.727c0-11.819-1.702-18.97-7.176-30.149-7.985-16.307-25.001-29.87-43.284-34.502-7.526-1.907-25.148-1.874-32.54.061Zm29.76,10.935c19.14,4.512,35.715,20.862,40.751,40.197c1.922,7.379,1.904,20.285-.039,27.745-4.976,19.102-20.922,35.048-40.024,40.024-7.519,1.958-20.382,1.957-27.906-.003-14.782-3.85-29.818-16.242-35.953-29.63-10.346-22.574-6.295-46.299,10.828-63.422c13.942-13.942,33.194-19.426,52.343-14.911Zm-24.509,11.039c-7.71,2.076-12.935,5.043-19.024,10.801-12.631,11.947-17.206,28.797-12.21,44.973c8.218,26.608,37.533,39.18,62.787,26.926c3.111-1.51,8.14-5.229,11.176-8.265c20.092-20.091,16.294-53.795-7.783-69.071-10.022-6.359-23.543-8.435-34.946-5.364Zm26.413,13.461c7.151,3.52,11.581,8.158,15.235,15.948c2.186,4.66,2.592,6.903,2.543,14.046-.07,10.239-2.455,16.077-9.41,23.032s-12.793,9.34-23.032,9.41c-7.143.049-9.386-.357-14.046-2.543-7.915-3.713-12.437-8.104-16.183-15.714-2.883-5.856-3.268-7.594-3.243-14.664.035-9.778,2.898-16.76,9.58-23.357c10.675-10.538,25.008-12.827,38.556-6.158Zm-21.779,8.361c-8.127,2.932-14.507,10.395-15.101,17.664L224.5,245.5h5.428c5.126,0,5.471-.159,6.192-2.857c1.039-3.883,3.456-6.348,7.55-7.699c3.375-1.114,3.423-1.211,3.129-6.278-.338-5.82-1.204-6.358-6.914-4.299Zm67.295,74.24C320.089,311.22,325,316.697,325,318.478c0,2.09-3.606,5.522-5.803,5.522-.991,0-7.963-6.172-15.493-13.714l-13.691-13.715l3.679-3.767c2.023-2.072,3.789-3.663,3.924-3.536.135.128,4.439,4.33,9.564,9.339Z" clip-rule="evenodd" fill-rule="evenodd"/></svg>
