<svg id="eSvwayoVs7c1" xmlns="http://www.w3.org/2000/svg" xmlns:xlink="http://www.w3.org/1999/xlink" viewBox="0 0 476 476" shape-rendering="geometricPrecision" text-rendering="geometricPrecision">
<style><![CDATA[
#eSvwayoVs7c9_to {animation: eSvwayoVs7c9_to__to 3000ms linear infinite normal forwards}@keyframes eSvwayoVs7c9_to__to { 0% {transform: translate(156.97068px,290.478302px);animation-timing-function: cubic-bezier(0.91,0.025,0.275,1)} 63.333333% {transform: translate(335.029335px,289.76548px);animation-timing-function: cubic-bezier(0.96,0.01,0,1.03)} 96.666667% {transform: translate(512.36282px,290.478302px)} 100% {transform: translate(512.36282px,290.478302px)}} #eSvwayoVs7c22_tr {animation: eSvwayoVs7c22_tr__tr 3000ms linear infinite normal forwards}@keyframes eSvwayoVs7c22_tr__tr { 0% {transform: translate(111.333504px,111.333504px) rotate(204deg)} 33.333333% {transform: translate(111.333504px,111.333504px) rotate(18050deg)} 100% {transform: translate(111.333504px,111.333504px) rotate(18050deg)}}
]]></style>
<g clip-path="url(#eSvwayoVs7c24)"><g><path d="M24.7996,2.13335c-4.5334,1.46667-8.5334,4.13333-13.6,9.06665C-0.800426,23.3334,-0.000426,9.73335,-0.000426,193.333c0,183.334-.8,170,11.066626,182c11.4667,11.467,10.9334,11.334,77.8667,11.334c54.5331,0,57.8671.133,57.2001,2.266-.4,1.334-1.2,4.8-2,7.734-1.067,4.133-2.533,6-6.133,8-2.667,1.333-6.267,5.066-8.134,8-2.8,4.8-3.2,7.2-3.2,17.733c0,17.2-2.666,16.267,43.6,16.267h37.734v-8-8h-33.334-33.333v-4.667c0-2.933,1.067-5.733,2.667-7.333c2.533-2.534,4.4-2.667,33.333-2.667h30.667v-7.333-7.334h-24.8-24.8l.8-3.466c.533-2,1.333-5.2,1.733-7.334l.8-3.866h23.067h23.2v-7.334-7.333h-87.2c-58.2671,0-88.5338-.533-91.0671-1.467-5.6-2-12.2667-9.066-13.7333-14.533-.6667-2.533-1.3334-10.267-1.3334-17.067v-12.266h96.6668h96.667v-7.334-7.333h-96.667-96.6668v-138.4c0-86.6666.5334-140,1.3334-142.8c1.7333-6.1333,8.6666-13.2,14.6666-14.8c2.5334-.6666,8.4-1.3333,13.0667-1.3333h8.2667v-7.33335-7.333333l-10.2667.133334c-5.7333,0-13.3333.933329-16.9333,1.999999Z"/><path d="M66.666,7.33341v7.33329h7.3333h7.3334v-7.33329-7.333329h-7.3334-7.3333v7.333329Z"/><path d="M96,7.33335v7.33335h172.4c108.933,0,174,.5333,176.933,1.3333c6,1.6,12.934,8.6667,14.667,14.8c1.867,6.2667,1.733,318.8,0,325.467-.8,2.8-3.6,6.8-7.067,9.866l-5.6,5.067-.666-119.333L446,132.533l-4-7.866c-2.533-4.934-6.133-9.6-9.733-12.267-11.067-8.4-11.2-8.4-97.6-8.4s-86.534,0-97.6,8.4c-3.6,2.667-7.2,7.333-9.734,12.267l-4,7.866v157.334v157.466l3.734,7.6c4,8.134,8.533,12.667,17.466,17.467L250,475.333h84.667h84.666L424.8,472.4c8.933-4.8,13.467-9.333,17.467-17.467c3.733-7.6,3.733-7.733,4.133-38.4l.533-30.8L452.267,384c3.466-.933,8-4.133,12.533-8.533c12-12.134,11.2,1.333,11.2-182.134c0-183.46632.8-169.9996-11.2-182.133-12.133-12.133317,2.933-11.199984-195.067-11.199984h-173.733v7.333334ZM418.667,121.6c6.8,3.467,12,10.4,12,15.867v3.866h-22.8c-12.8,0-23.867.534-25.2,1.334-1.467.8-2.934,3.466-3.334,6.4-2.666,16,.8,14.933-44.533,14.933-43.867,0-41.6.667-44.267-12-.8-4-2.4-8.133-3.6-9.067-1.466-1.066-8.8-1.6-25.2-1.6h-23.066v-3.333c0-4.133,2.8-9.867,6.4-13.067c6.533-6,8.8-6.133,90.266-6.266h77.467l5.867,2.933ZM277.2,161.333c2,6.667,7.467,13.2,13.067,15.467c6.266,2.667,82.533,2.667,88.8,0c5.6-2.267,11.066-8.8,13.066-15.467l1.6-5.333h18.534h18.4v130v130h-96-96v-130-130h18.4h18.533l1.6,5.333ZM430.667,439.2c0,8.933-3.734,14.933-12,19.2l-5.867,2.933h-78.133-78.134l-5.866-3.066c-8.267-4.134-12-10.134-12-19.067v-7.2h96h96v7.2Z"/><path d="M305.333,141.333v8h29.333h29.334v-8-8h-29.334-29.333v8Z"/><g mask="url(#eSvwayoVs7c13)"><g id="eSvwayoVs7c9_to" transform="translate(156.97068,290.478302)"><g transform="translate(-335.029335,-289.76548)"><path d="M318.267,209.917c-27.333,5.333-52,27.467-60.8,54.133-4.533,13.867-4.666,38.934-.133,52c4.267,12.4,15.333,28.267,24.933,36.134c26.134,21.066,58.8,25.2,88,11.066c19.334-9.333,35.867-27.866,42.134-47.066c4-12.4,4.8-31.867,2-44.667-6.934-31.2-32.4-55.733-64-61.733-12.4-2.4-19.734-2.4-32.134.133Zm26.667,13.867c24.8,3.466,45.733,21.6,53.6,46.266c7.467,23.734,1.6,48.4-16,66.267-26.667,26.933-68.533,27.067-95.067.133-32-32.4-22.666-86.8,18.267-106.4c14.133-6.8,23.867-8.4,39.2-6.266Z"/><path d="M340.667,258.717L320.4,278.984l-6-5.6c-3.466-3.2-7.333-5.6-9.2-5.6-2.133,0-7.2,4.133-16.666,13.866-7.467,7.6-13.6,14.134-13.6,14.667c0,3.2,5.866,10.267,21.6,25.6c19.333,19.067,22.4,21.333,26.133,19.333c1.2-.666,18.133-17.2,37.467-36.533c30.933-31.2,34.933-35.733,34.133-38.4-.533-1.733-6.4-8.8-13.067-15.6-16.933-17.067-15.2-17.333-40.533,8Zm35.2,8.667c-.533.666-56,56.4-56.133,56.4-.134,0-6.134-5.867-13.2-13.067l-13.2-13.2l5.733-5.467c3.067-3.066,6-5.6,6.533-5.6.4,0,3.2,2.4,6,5.334c8.267,8.533,9.067,8.133,32.534-15.334l20.8-20.533l5.6,5.467c3.2,3.066,5.6,5.733,5.333,6Z"/><path d="M298.268,292.252l19.826,19.532l56.174-54" fill="none" stroke="#0478ef" stroke-width="19"/></g></g><mask id="eSvwayoVs7c13" mask-type="alpha" x="-150%" y="-150%" height="400%" width="400%"><rect width="193" height="190" rx="0" ry="0" transform="translate(238 203)" fill="#d9d9d9"/></mask></g><path d="M305.333,446v7.333h29.333h29.334v-7.333-7.333h-29.334-29.333v7.333Z"/><path d="M312.266,36.9334l.4,7.7333h48h48l.4-7.7333.4-7.6h-48.8-48.8l.4,7.6Z"/><path d="M424,37.3334v8h7.333h7.334v-8-8h-7.334-7.333v8Z"/><path d="M180,203.867c-.667,1.466-1.333,5.333-1.333,8.8c0,6-.134,6.133-6.267,8.8l-6.133,2.666-4.934-4.8c-7.333-7.2-9.466-6.533-23.733,7.734-14.133,14.133-14.8,16.266-7.6,23.6l4.8,4.933-2.667,6.133C129.467,268,129.467,268,122.8,268c-10.133,0-10.8,1.2-10.8,20.8v16.533h7.333h7.334v-11.333-11.333h5.733c6.8,0,9.067-2,11.6-10c.933-2.934,3.067-8.134,4.8-11.6c1.733-3.467,3.2-6.934,3.2-7.6c0-.8-1.867-3.467-4.133-6.134l-4.267-4.8l4.4-4.666c5.067-5.067,7.333-5.6,9.2-2.134.667,1.334,2.8,3.2,4.667,4.134c2.933,1.6,4,1.466,9.733-1.467c3.467-1.867,8.8-4.133,11.733-5.067c8-2.533,10-4.8,10-11.6v-5.733h11.334h11.333v-7.333-7.334h-17.333c-15.734,0-17.334.267-18.667,2.534Z"/><path d="M188.666,255.067c-11.867,4.533-20.533,13.866-23.467,25.2-2.4,8.8-1.2,10.666,6.4,10.133c6.134-.4,6.4-.533,7.467-5.6c1.6-6.8,9.6-14.8,16.4-16.4c5.2-1.2,5.2-1.2,5.6-8.133l.4-6.934-4.4.134c-2.4,0-6.267.8-8.4,1.6Z"/><path d="M29.333,350v7.467l7.7333-.4l7.6-.4.4-7.067.4-6.933h-8-8.1333v7.333Z" fill="#04bdfc"/><path d="M60,350v7.333h22h22v-7.333-7.333h-22-22v7.333Z"/><g id="eSvwayoVs7c22_tr" transform="translate(111.333504,111.333504) rotate(204)"><path d="M92.6667,24.3999c-2.2667,1.7334-3.2,4.2667-3.7334,9.4667-.6666,6.8-.8,7.2-6.1333,9.4667l-5.4667,2.2666-5.6-5.0666c-3.2-2.9334-6-5.2-6.4-5.2-5.3333,0-30,24.6666-30,30c0,.4,2.2667,3.2,5.2,6.4l5.0667,5.6-2.2667,5.4666c-2.2666,5.3334-2.6666,5.4667-9.4666,6.1334C23.0667,90,22,92,22,111.867c0,20,.6667,21.066,11.4667,22.133c7.6.667,7.6.667,9.7333,6.267c2,5.6,2,5.733-1.4667,9.333-3.3333,3.6-6.4,8.667-6.4,10.533c0,.534,5.8667,6.8,12.9334,14c8.9333,9.2,13.8666,13.2,16,13.2C66,187.333,69.6,185.2,72.4,182.667L77.6,178l5.3333,2.133c5.2,2,5.4667,2.4,6.1334,9.467c1.2,11.067,1.2,11.067,22.2663,11.067C132.8,200.667,134,200,134,189.2c0-6.533,0-6.533,6.133-9.067l6-2.533l5.067,4.933c7.467,7.334,9.467,6.667,23.733-7.6c14.267-14.266,14.934-16.266,7.6-23.733l-4.933-5.067l2.533-6L182.667,134h6.8c10.533,0,11.2-1.333,11.2-22.933c0-20.8004,0-20.8004-11.067-22.0004-7.067-.6666-7.467-.9333-9.467-6.1333L178,77.6l4.667-5.2001c2.533-2.8,4.666-6.3999,4.666-8.1333c0-2.1333-4-7.0666-13.2-16-7.2-7.0667-13.466-12.9333-14-12.9333-1.866,0-6.933,3.0667-10.8,6.6667l-4,3.5999-5.6-2.5333C134.133,40.6666,134,40.4,134,34c0-10.9334-2-12-21.867-12-13.9997,0-16.933.3999-19.4663,2.3999Zm26.6663,19.2c0,5.8667,2.8,10.4001,6.534,10.4001c1.2,0,6,1.8666,10.533,4c10.667,4.9333,13.067,4.9333,18.267,0l4.133-4l5.067,5.2l5.2,5.3333-4.134,4.8c-2.4,2.6666-4.266,5.3333-4.266,6.1333c0,.6667,1.466,4.1334,3.2,7.6c1.733,3.4667,4,8.8,4.933,12c2,6.9334,5.467,9.6004,12.133,9.6004h5.067v7.333v7.333h-5.467c-7.2,0-10.133,1.734-11.2,6.934-.533,2.4-2.666,7.866-4.8,12-2.133,4.266-3.866,8.533-3.866,9.6c0,1.2,1.866,4.266,4.266,6.8l4.134,4.8-4.8,4.8-4.8,4.8-4.8-4.134c-5.734-5.066-6.934-5.2-15.067-1.066-3.467,1.733-8.667,3.866-11.6,4.8-6.933,2.133-8.667,4.533-8.667,11.6v5.733h-7.333-7.333v-5.067c0-6.666-2.667-10.133-9.6003-12.133-3.2-.933-8.4-3.2-11.6-4.933-7.4667-4.134-8.4-4-14.1334,1.066l-4.8,4.134-5.3333-5.2L54,158.8l4-4.133c4.9333-5.2,4.9333-7.6,0-18.267-2.1333-4.533-4-9.2-4-10.267c0-4-4.2667-6.8-10.2667-6.8h-5.7333L38,112c0-7.2,0-7.333,3.8667-7.333c8,0,10.4-2,13.3333-11.067c1.6-4.6667,3.7333-9.7334,4.8-11.0667c3.0667-4.1333,2.4-9.4667-1.8667-14.1334l-4-4.3999l4.8-4.9334l4.8-4.9333L68.2667,58C73.2,62.4,78.4,63.0666,82.5333,60c1.3334-1.0667,6.4-3.2,11.0667-4.8c9.067-2.9334,11.067-5.3334,11.067-13.3334C104.667,38,104.8,38,112,38h7.333v5.5999Z" transform="translate(-111.333504,-111.333504)" fill="#0078f0"/></g><path d="M104.666,75.2c-7.8662,1.8667-11.7328,3.8667-17.8662,9.4667-12.5333,11.6-15.6,28.6663-8,43.4663c4.5334,8.934,13.7334,16.667,22.8002,19.2c7.466,2.134,19.866,1.067,26.533-2.4c6.133-3.2,14-11.2,17.2-17.466c3.067-6.134,4.133-18.667,2-25.867C142.533,84,122,71.3333,104.666,75.2Zm18.667,17.7333c6.533,4.5334,9.6,9.4667,10.267,16.6667c1.733,18.8-20.134,31.067-35.0668,19.733-6.6667-5.066-8.9334-10.4-8.2667-19.333.9333-12.9333,8.5333-19.8667,21.8665-20c4.933,0,8,.8,11.2,2.9333Z"/></g><clipPath id="eSvwayoVs7c24"><rect width="476" height="476" rx="0" ry="0" fill="#fff"/></clipPath></g></svg>
