<svg id="eROrcQsiGPm1" xmlns="http://www.w3.org/2000/svg" xmlns:xlink="http://www.w3.org/1999/xlink" viewBox="0 0 357 314" shape-rendering="geometricPrecision" text-rendering="geometricPrecision">
<style><![CDATA[
#eROrcQsiGPm4_to {animation: eROrcQsiGPm4_to__to 2000ms linear infinite normal forwards}@keyframes eROrcQsiGPm4_to__to { 0% {transform: translate(499.088478px,137.902423px);animation-timing-function: cubic-bezier(0.25,0.46,0.45,0.94)} 50% {transform: translate(185.08846px,139.797414px)} 100% {transform: translate(185.08846px,139.797414px)}} #eROrcQsiGPm5_to {animation: eROrcQsiGPm5_to__to 2000ms linear infinite normal forwards}@keyframes eROrcQsiGPm5_to__to { 0% {transform: translate(185.036934px,140.415562px)} 75% {transform: translate(185.036934px,140.415562px);animation-timing-function: cubic-bezier(0.895,0.03,0.685,0.22)} 100% {transform: translate(190.127969px,21.412625px)}} #eROrcQsiGPm6_to {animation: eROrcQsiGPm6_to__to 2000ms linear infinite normal forwards}@keyframes eROrcQsiGPm6_to__to { 0% {transform: translate(82.036777px,140.415562px)} 50% {transform: translate(82.036777px,140.415562px);animation-timing-function: cubic-bezier(1,0.005,0.01,1.005)} 75% {transform: translate(-57.560889px,140.415562px)} 100% {transform: translate(-57.560889px,140.415562px)}} #eROrcQsiGPm7_to {animation: eROrcQsiGPm7_to__to 2000ms linear infinite normal forwards}@keyframes eROrcQsiGPm7_to__to { 0% {transform: translate(288.036934px,140.415562px)} 50% {transform: translate(288.036934px,140.415562px);animation-timing-function: cubic-bezier(0.975,0.005,0.035,0.985)} 75% {transform: translate(412.474673px,140.415562px)} 100% {transform: translate(412.474673px,140.415562px)}}
]]></style>
<path d="M19.365,1.02534c-5.908,1.712-12.547,7.144-15.781,12.91096l-3.084,5.5-.289,45.244c-.201,31.631.044,45.8647.817,47.3077.827,1.546,1.899,1.987,4.266,1.756c5.134-.501,5.675-2.834,5.691-24.5577L11,69.9363h167.515h167.516l-.266,91.4347-.265,91.434-3,3.189c-5.334,5.669-6.938,5.942-34.945,5.942h-25.509l-1.665,2.541c-1.333,2.035-1.442,3.031-.544,5l1.12,2.459l27.772-.01c27.055-.009,27.901-.07,32.827-2.364c2.792-1.3,6.719-4.298,8.772-6.696c7.003-8.182,6.673-1.894,6.666-126.862-.003-73.6157-.359-113.8417-1.028-116.2497-1.725-6.212-7.029-12.83096-12.993-16.21396-5.26-2.982997-6.002-3.116997-19.059-3.445996C309.096,-0.278657,307,0.384342,307,5.45134c0,4.354,3.292,5.48496,15.973,5.48696c13.184.001,16.998,1.268,20.757,6.896c2.165,3.24,2.27,4.295,2.27,22.75v19.352h-167.5-167.5v-19.352c0-18.455.105-19.51,2.27-22.75c1.248-1.869,3.836-4.185,5.75-5.146c3.261-1.639,11.815-1.749,135.665-1.75c82.468-.001,133.139-.365,134.722-.96696c3.366-1.279,4.429-5.454,2.057-8.075-1.746-1.928998-3.9-1.958997-135.369-1.869997-76.844.052-134.927.476-136.73.998997ZM40.556,26.4913c-4.052,2.103-5.488,4.374-5.524,8.74-.08,9.523,13.172,13.013,17.515,4.614c2.171-4.198,1.769-7.542-1.297-10.797-3.425-3.636-6.977-4.485-10.694-2.557Zm29.773-.089c-8.816,3.812-6.858,16.6,2.78,18.164c6.544,1.062,12.405-6.518,9.977-12.904-1.85-4.866-7.9-7.361-12.757-5.26Zm29.672.286c-9.283,4.638-6.332,17.703,3.999,17.703c10.278,0,13.06-14.025,3.568-17.991-4.244-1.773-3.377-1.806-7.567.288ZM1.035,129.87C0.355,131.141,0,152.055,0,190.833c0,56.516.085,59.255,1.994,64.356c2.333,6.238,7.638,11.794,14.006,14.67c4.331,1.957,6.396,2.034,55.128,2.055c39.268.017,50.86.303,51.665,1.272.571.688,2.694,5.751,4.718,11.25c4.048,11.001,6.081,13.5,10.983,13.5c2.79,0,4.698-1.402,12.928-9.5c5.311-5.225,9.95-9.5,10.31-9.5s5.287,4.56,10.951,10.133c10.031,9.871,10.392,10.117,13.998,9.531c2.772-.449,5.312-2.177,10.119-6.882c7.458-7.3,9.667-11.424,8.193-15.299-.546-1.437-.993-3.034-.993-3.548c0-.558,11.658-.935,28.943-.935c28.776,0,28.953-.013,30.5-2.223c2.004-2.86,1.965-3.369-.443-5.777-1.922-1.922-3.333-2-36.304-2h-34.304l-3.196-3.298c-1.758-1.813-3.196-3.615-3.196-4.004s3.803-4.519,8.452-9.178c11.535-11.562,12.652-14.102,8.298-18.875-2.729-2.991-93.272-36.973-98.63-37.017-3.926-.032-8.12,4.003-8.12,7.814c0,1.281,5.175,16.187,11.5,33.123s11.5,30.938,11.5,31.114c0,.177-21.389.321-47.532.321-52.005,0-51.308.073-56.968-5.942l-3-3.188-.5-60.782c-.407-49.493-.755-61.09-1.872-62.435-1.913-2.303-6.801-2.133-8.093.281Zm156.401,89.494c18.664,6.936,34.157,12.832,34.428,13.103s-4.088,5.147-9.686,10.836-10.178,10.927-10.178,11.642c0,.714,5.039,6.406,11.199,12.649l11.199,11.35-3.902,3.996c-2.146,2.198-4.178,3.996-4.515,3.996-.338,0-5.368-4.725-11.178-10.5-7.407-7.362-11.266-10.5-12.915-10.5-1.639,0-5.31,2.947-12.104,9.716-6.047,6.023-10.093,9.348-10.65,8.75-.746-.804-31.134-81.842-31.134-83.029c0-.213,3.487.911,7.75,2.497s23.021,8.558,41.686,15.494Z" clip-rule="evenodd" fill-rule="evenodd"/><g mask="url(#eROrcQsiGPm8)"><g id="eROrcQsiGPm4_to" transform="translate(499.088478,137.902423)"><g transform="translate(-185.088451,-140.429029)"><g id="eROrcQsiGPm5_to" transform="translate(185.036934,140.415562)"><path d="M146.774,113.385c-1.53,2.301-1.287,3.336,5.364,22.901c9.425,27.727,11.012,31.66,13.251,32.841c4.393,2.318,6.135-.719,15.977-27.864c1.719-4.74,3.453-8.618,3.852-8.618.401,0,2.872,6.095,5.492,13.543c6.348,18.047,8.461,22.731,10.547,23.384c2.655.83,4.781-.354,5.871-3.27c9.596-25.671,17.181-48.441,16.94-50.853-.221-2.214-.99-3.2-3.049-3.909-1.799-.62-3.1-.607-3.752.036-.55.542-3.249,7.166-5.998,14.721-5.754,15.812-8.008,21.122-8.962,21.122-.373,0-3.339-7.611-6.593-16.915-3.254-9.303-6.511-17.503-7.236-18.222-1.482-1.466-4.039-1.675-5.942-.484-.696.435-4.176,8.697-7.731,18.358-6.334,17.21-7.108,18.998-7.862,18.167-.205-.226-2.728-7.06-5.607-15.186-2.88-8.126-5.923-16.104-6.762-17.729-2.63-5.09-5.301-5.782-7.8-2.023Z" transform="translate(-185.036934,-140.415562)" clip-rule="evenodd" fill="#0478ef" fill-rule="evenodd"/></g><g id="eROrcQsiGPm6_to" transform="translate(82.036777,140.415562)"><path d="M43.7736,113.385c-1.5298,2.301-1.287,3.336,5.3639,22.901c9.4258,27.727,11.0126,31.66,13.2519,32.841c4.3926,2.318,6.1343-.719,15.9768-27.864c1.7187-4.74,3.4523-8.618,3.852-8.618.4007,0,2.8718,6.095,5.4918,13.543c6.3482,18.047,8.4606,22.731,10.547,23.384c2.655.83,4.781-.354,5.871-3.27c9.596-25.671,17.181-48.441,16.94-50.853-.221-2.214-.99-3.2-3.049-3.909-1.799-.62-3.1-.607-3.752.036-.55.542-3.249,7.166-5.998,14.721-5.754,15.812-8.008,21.122-8.9618,21.122-.3728,0-3.3395-7.611-6.593-16.915-3.2545-9.303-6.511-17.503-7.2365-18.222-1.4818-1.466-4.0389-1.675-5.9414-.484-.6965.435-4.1758,8.697-7.7311,18.358-6.3342,17.21-7.1086,18.998-7.862,18.167-.2048-.226-2.7279-7.06-5.6077-15.186s-5.9225-16.104-6.7618-17.729c-2.63-5.09-5.301-5.782-7.8001-2.023Z" transform="translate(-82.036777,-140.415562)" clip-rule="evenodd" fill="#0478ef" fill-rule="evenodd"/></g><g id="eROrcQsiGPm7_to" transform="translate(288.036934,140.415562)"><path d="M249.774,113.385c-1.53,2.301-1.287,3.336,5.364,22.901c9.425,27.727,11.012,31.66,13.251,32.841c4.393,2.318,6.135-.719,15.977-27.864c1.719-4.74,3.453-8.618,3.852-8.618.401,0,2.872,6.095,5.492,13.543c6.348,18.047,8.461,22.731,10.547,23.384c2.655.83,4.781-.354,5.871-3.27c9.596-25.671,17.181-48.441,16.94-50.853-.221-2.214-.99-3.2-3.049-3.909-1.799-.62-3.1-.607-3.752.036-.55.542-3.249,7.166-5.998,14.721-5.754,15.812-8.008,21.122-8.962,21.122-.373,0-3.339-7.611-6.593-16.915-3.254-9.303-6.511-17.503-7.236-18.222-1.482-1.466-4.039-1.675-5.942-.484-.696.435-4.176,8.697-7.731,18.358-6.334,17.21-7.108,18.998-7.862,18.167-.205-.226-2.728-7.06-5.607-15.186-2.88-8.126-5.923-16.104-6.762-17.729-2.63-5.09-5.301-5.782-7.8-2.023Z" transform="translate(-288.036934,-140.415562)" clip-rule="evenodd" fill="#0478ef" fill-rule="evenodd"/></g></g></g><mask id="eROrcQsiGPm8" mask-type="alpha" x="-150%" y="-150%" height="400%" width="400%"><rect width="340" height="124" rx="0" ry="0" transform="translate(4 62)" fill="#d9d9d9"/></mask></g><path d="M106.64,200.78l87.682,31.524-58.266,56.888L106.64,200.78Z" fill="#0478ef"/><line x1="160.273" y1="250.996" x2="191.356" y2="283.887" fill="none" stroke="#0478ef" stroke-width="16"/></svg>
